<svg xmlns="http://www.w3.org/2000/svg" viewBox="-59 -931 1122 1102">
  <defs>
    <linearGradient id="g" x1="0%" y1="0%" x2="100%" y2="100%">
      <stop offset="0%" stop-color="#6c5ce7"/>
      <stop offset="25%" stop-color="#e84393"/>
      <stop offset="50%" stop-color="#fd79a8"/>
      <stop offset="75%" stop-color="#00cec9"/>
      <stop offset="100%" stop-color="#6c5ce7"/>
    </linearGradient>
  </defs>
  <g transform="scale(1,-1)">
    <path d="M21 589 47 469C58 471 70 479 77 492L102 497C86 414 68 336 53 283C102 254 157 213 207 169C167 76 109 -9 28 -79L39 -88C138 -34 211 35 264 114C289 86 311 59 327 32C404 -15 500 91 314 204C365 315 388 441 399 571L494 600L493 614L402 606L405 650C429 651 440 661 444 677L291 702C292 668 291 633 290 599L224 595C240 676 254 751 263 803C292 806 299 816 302 828L157 851C153 793 138 694 119 590ZM862 528 797 440H716C723 521 723 610 725 707C780 714 830 722 872 731C904 719 927 719 939 730L814 850C732 800 569 733 438 698L441 686C493 687 547 689 601 694C601 602 601 518 597 440H411L419 412H595C580 212 525 55 321 -73L332 -88C591 17 677 163 707 360C732 165 786 6 889 -91C895 -38 929 6 981 34L983 47C859 111 762 224 721 412H950C964 412 975 417 977 428C935 469 862 528 862 528ZM288 540C281 439 265 338 235 244C209 255 181 266 149 276C169 347 190 435 208 521Z" fill="url(#g)"/>
  </g>
</svg>